<?xml version="1.0" encoding="UTF-8"?>
<svg width="512" height="512" viewBox="0 0 64 64" fill="none" xmlns="http://www.w3.org/2000/svg">
  <!-- Fondo con esquinas redondeadas -->
  <rect x="0" y="0" width="64" height="64" rx="14" fill="#16A34A"/>
  <!-- Hoja principal -->
  <path d="M48 24c-10.5 0-19 8.5-19 19 0 .68.03 1.35.1 2-5.8-1.1-10.3-5.6-11.4-11.4.65.07 1.32.1 2 .1 10.5 0 19-8.5 19-19 3.1.6 5.9 2.5 7.7 5 .8 1.1 1.4 2.3 1.6 3.6-.97.2-2 .3-3 .3Z" fill="#FFFFFF" fill-opacity="0.92"/>
  <!-- Nervadura de la hoja -->
  <path d="M20 42c6-1 14-9 16-16" stroke="#FFFFFF" stroke-width="3" stroke-linecap="round"/>
  <!-- Detalle de brote -->
  <circle cx="44" cy="18" r="2.5" fill="#FFFFFF" fill-opacity="0.95"/>
</svg>
